<?xml version="1.0" encoding="UTF-8" standalone="no"?>
<!DOCTYPE svg PUBLIC "-//W3C//DTD SVG 1.0//EN" "http://www.w3.org/TR/2001/REC-SVG-20010904/DTD/svg10.dtd">
<!-- Created with Inkscape (http://www.inkscape.org/) by Steadfast-->
<svg
   xmlns:svg="http://www.w3.org/2000/svg"
   xmlns="http://www.w3.org/2000/svg"
   version="1.0"
   width="310"
   height="520"
   id="svg5018">
  <defs
     id="defs5020" />
  <g
     id="layer1">
    <g
       transform="matrix(7.9873799,0,0,7.9873799,-3154.0574,-2166.4922)"
       id="g5032">
      <g
         transform="matrix(1.25,0,0,-1.25,432.43634,335.09013)"
         id="g37">
        <path
           d="M -3.894,0 L 0,0 L 0,15.516 L -3.894,15.516 L -3.894,0 z M -5.609,15.516 L -18.011,15.516 L -18.011,12.097 L -12.114,12.097 L -19.227,0 L -6.374,0 L -6.374,3.42 L -12.676,3.42 L -5.609,15.516 z M -19.963,12.097 L -19.963,15.516 L -28.561,15.516 L -28.561,0 L -24.667,0 L -24.667,6.095 L -20.39,6.095 L -20.39,9.514 L -24.667,9.514 L -24.667,12.097 L -19.963,12.097"
           id="path39"
           style="fill:#808285;fill-opacity:1;fill-rule:nonzero;stroke:none" />
      </g>
      <g
         transform="matrix(1.25,0,0,-1.25,401.94009,272.49138)"
         id="g41">
        <path
           d="M 0,0 L 14.812,-0.021 L 19.435,-4.645 L -4.623,-4.623 L 0,0 z M 24.363,-9.572 L 24.363,-24.389 L 19.74,-29.013 L 19.74,-4.949 L 24.363,-9.572 z M -0.478,-5.31 L 10.496,-5.31 L 14.641,-9.455 L -4.623,-9.455 L -0.478,-5.31 z M 19.06,-13.873 L 19.06,-24.846 L 14.914,-28.992 L 14.914,-9.727 L 19.06,-13.873 z M -0.909,-10.07 L 6.537,-10.07 L 10.25,-13.784 L -4.623,-13.784 L -0.909,-10.07 z M 14.208,-17.741 L 14.208,-25.265 L 10.495,-28.979 L 10.495,-14.028 L 14.208,-17.741 z M -1.799,-14.492 L 3.966,-14.492 L 6.811,-17.337 L -4.644,-17.337 L -1.799,-14.492 z M -1.743,-18.111 L 3.415,-18.111 L 6.26,-20.956 L 6.279,-26.134 L 3.434,-28.979 L -1.743,-28.999 L -4.588,-26.153 L -4.608,-20.976 L -1.763,-18.131 L -1.743,-18.111 z M 3.434,-20.956 L -1.763,-20.956 L -1.763,-26.1529 L 3.434,-26.1529 L 3.434,-20.956 z M 9.843,-20.369 L 9.843,-26.134 L 6.998,-28.979 L 6.998,-17.524 L 9.843,-20.369"
           id="path43"
           style="fill:#007f53;fill-opacity:1;fill-rule:nonzero;stroke:none" />
      </g>
    </g>
  </g>
</svg>
